<svg width="20" height="20" viewBox="0 0 20 20" fill="none" xmlns="http://www.w3.org/2000/svg">
<path d="M16.6248 7.7967C16.6248 6.08797 15.6284 4.85759 14.4873 4.49226C13.4288 4.15354 11.9447 4.48099 10.7617 6.56623C10.6064 6.84013 10.3161 7.01047 10.0012 7.01057C9.6863 7.01062 9.39499 6.84131 9.2395 6.56746C8.05553 4.48176 6.57168 4.15343 5.5127 4.49226C4.37137 4.85755 3.37524 6.088 3.37524 7.7967C3.37542 9.47962 4.3995 11.0254 5.9021 12.4451C7.21666 13.6871 8.75501 14.7075 10 15.5616C11.2451 14.7074 12.7834 13.6874 14.0979 12.4451C15.6002 11.0254 16.6246 9.47993 16.6248 7.7967ZM18.3752 7.7967C18.3751 10.2117 16.9146 12.1914 15.3003 13.7171C13.681 15.2474 11.7207 16.4875 10.5042 17.3414C10.2025 17.5531 9.79995 17.553 9.49829 17.3414C8.28183 16.4876 6.32073 15.2475 4.70093 13.7171C3.08616 12.1915 1.62493 10.2118 1.62476 7.7967C1.62476 5.40675 3.03998 3.44546 4.97925 2.82478C6.68299 2.27967 8.55671 2.82986 10 4.59236C11.4428 2.82908 13.318 2.27926 15.022 2.82478C16.9608 3.44569 18.3752 5.40695 18.3752 7.7967Z" fill="black"/>
</svg>
