<svg width="167" height="174" viewBox="0 0 167 174" fill="none" xmlns="http://www.w3.org/2000/svg">

<path d="M103.503 46.4952C113.484 46.4952 121.604 54.6152 121.604 64.5962V113.404C121.604 123.385 113.484 131.505 103.503 131.505H54.6948C44.7138 131.505 36.5938 123.385 36.5938 113.404V64.5962C36.5938 54.6152 44.7138 46.4952 54.6948 46.4952H103.503ZM103.503 44.6502H54.6948C43.6788 44.6502 34.7488 53.5802 34.7488 64.5962V113.404C34.7488 124.42 43.6788 133.35 54.6948 133.35H103.503C114.519 133.35 123.449 124.42 123.449 113.404V64.5962C123.449 53.5802 114.519 44.6502 103.503 44.6502Z" fill="currentColor"/>
<path d="M124.202 44.2979L124.006 44.1016L34 133.701L34.1954 133.898L124.202 44.2979Z" fill="currentColor"/>
<path d="M124.098 133.804L34.2943 44L34.0992 44.1952L123.903 133.999L124.098 133.804Z" fill="currentColor"/>
<path d="M122.519 105.21H35.6788V105.487H122.519V105.21Z" fill="currentColor"/>
<path d="M122.519 88.8622H35.6788V89.1382H122.519V88.8622Z" fill="currentColor"/>
<path d="M122.519 72.5132H35.6788V72.7892H122.519V72.5132Z" fill="currentColor"/>
<path d="M95.5858 45.5802H95.3088V132.42H95.5858V45.5802Z" fill="currentColor"/>
<path d="M79.2368 45.5802H78.9598V132.42H79.2368V45.5802Z" fill="currentColor"/>
<path d="M62.8878 45.5802H62.6108V132.42H62.8878V45.5802Z" fill="currentColor"/>
<path d="M117.692 44.7302H117.415V133.269H117.692V44.7302Z" fill="currentColor"/>
<path d="M40.7828 44.7302H40.5058V133.269H40.7828V44.7302Z" fill="currentColor"/>
<path d="M123.368 50.4072H34.8288V50.6832H123.368V50.4072Z" fill="currentColor"/>
<path d="M123.368 127.316H34.8288V127.593H123.368V127.316Z" fill="currentColor"/>
<path d="M79.0988 127.547C57.8438 127.547 40.5518 110.254 40.5518 89.0002C40.5518 67.7462 57.8438 50.4532 79.0988 50.4532C100.354 50.4532 117.646 67.7452 117.646 89.0002C117.646 110.255 100.354 127.547 79.0988 127.547ZM79.0988 50.7292C57.9958 50.7292 40.8288 67.8972 40.8288 88.9992C40.8288 110.102 57.9968 127.269 79.0988 127.269C100.201 127.269 117.369 110.103 117.369 89.0002C117.369 67.8972 100.202 50.7292 79.0988 50.7292Z" fill="currentColor"/>
<path d="M79.0988 112.314C66.2438 112.314 55.7838 101.855 55.7838 88.9992C55.7838 76.1432 66.2428 65.6862 79.0988 65.6862C91.9548 65.6862 102.413 76.1442 102.413 89.0002C102.413 101.856 91.9538 112.314 79.0988 112.314ZM79.0988 65.9622C66.3958 65.9622 56.0608 76.2972 56.0608 89.0002C56.0608 101.703 66.3948 112.038 79.0988 112.038C91.8028 112.038 102.136 101.703 102.136 89.0002C102.136 76.2972 91.8018 65.9622 79.0988 65.9622Z" fill="currentColor"/>
<path d="M79.0988 105.487C70.0078 105.487 62.6108 98.0912 62.6108 88.9992C62.6108 79.9072 70.0078 72.5132 79.0988 72.5132C88.1898 72.5132 95.5858 79.9092 95.5858 89.0002C95.5858 98.0912 88.1898 105.487 79.0988 105.487ZM79.0988 72.7892C70.1598 72.7892 62.8888 80.0612 62.8888 89.0002C62.8888 97.9392 70.1598 105.21 79.0988 105.21C88.0378 105.21 95.3088 97.9392 95.3088 89.0002C95.3088 80.0612 88.0378 72.7892 79.0988 72.7892Z" fill="currentColor"/>
</svg>
